<svg width="136" height="127" viewBox="0 0 136 127" fill="none" xmlns="http://www.w3.org/2000/svg">
<g clip-path="url(#clip0_27_159)">
<path d="M27.8472 41.2283C25.7282 40.9715 23.2262 40.4353 21.1117 40.4361C20.5977 40.4362 18.0706 40.494 18.4395 41.3789C20.5899 42.2187 21.4849 44.8332 23.4355 46.0587C24.4816 46.7167 25.7219 46.9349 26.6982 47.7017C24.9062 66.8991 39.9626 83.0064 57.8487 87.6077L50.9236 97.4974C49.6593 97.6992 47.0242 94.6106 45.4465 95.333C44.7191 96.3534 48.7247 98.3999 49.537 98.5617C49.9747 99.6382 43.7872 101.85 45.9477 103.471C52.0509 100.21 55.6041 93.4923 59.4536 87.9616C63.425 88.5308 67.4389 89.0246 71.459 88.6702C72.043 88.8364 71.8004 88.8443 71.689 89.2424C71.1812 91.015 66.0834 99.9348 64.7253 100.762C63.9612 101.226 59.2977 99.9135 58.1037 99.6927C57.1831 102.26 62.9954 101.396 63.4226 102.326C62.7543 103.582 61.0224 104.548 60.3508 105.693C60.11 106.106 60.1243 106.125 60.5811 106.272C61.4519 106.485 62.5419 105.389 63.1552 104.788C67.6219 100.412 70.7268 94.1761 73.3337 88.5589C79.2538 88.117 85.4451 86.544 90.8742 84.158C94.6383 82.5019 98.117 80.0067 101.994 78.6195C108.284 76.3647 117.158 75.7687 122.119 70.7596C123.449 69.4153 125.652 66.583 123.735 65.0713C112.148 64.0622 100.509 62.0472 89.9412 56.8893C89.7887 56.5481 95.3982 53.121 96.0432 52.6407C100.635 49.2118 108.85 42.0401 110.393 36.5207C111.951 30.93 104.756 29.6698 100.755 29.7121C90.3032 29.8173 79.5677 35.2378 70.5378 40.0206C57.6229 30.6182 34.3335 18.724 27.8445 41.2271L27.8472 41.2283ZM66.7414 45.5258C67.2149 44.7479 70.0074 42.0389 70.6801 42.1498C71.0809 42.217 71.4439 42.9667 72.1708 42.3796C71.8171 40.7669 73.5949 40.0376 74.7912 39.3372C82.0001 35.1227 94.7656 30.179 103.161 31.2291C110.164 32.105 110.183 35.0157 106.733 40.2961C101.742 47.9356 92.2308 54.043 84.1494 57.9369C82.4119 58.7744 77.5621 60.3474 76.4146 61.1886C75.9737 61.5117 75.769 61.7819 75.6211 62.3163L76.8713 62.3479C80.8774 61.1397 84.6808 59.2741 88.417 57.3697C94.8569 61.188 102.95 63.5728 110.335 64.8732C111.992 65.1657 122.54 66.0082 122.851 66.6611C121.486 71.2419 115.085 73.5133 110.898 74.8855C107.63 75.9578 103.541 76.3731 100.478 77.6216C97.3792 78.8841 93.9719 81.2225 90.7284 82.6323C78.3559 88.0183 64.4247 89.6831 51.697 84.1604C36.943 77.758 25.3458 62.2531 28.3567 45.6911C32.9643 19.8897 54.6182 30.5399 69.4167 40.8604C68.3358 42.3226 66.4256 42.8133 66.3369 44.894C66.3176 45.3256 66.0411 45.3221 66.7426 45.5231L66.7414 45.5258ZM21.2409 41.6278L27.818 42.8592L27.0619 46.0898C26.4419 46.3189 21.3408 42.9686 21.2409 41.6278Z" fill="white"/>
<path d="M53.3613 65.9267C51.8094 66.6344 56.9776 71.1334 57.6214 71.5714C66.1353 77.4032 84.3708 76.6431 94.0981 74.0364C94.7789 73.8531 97.1987 73.231 97.3492 72.5716L96.6534 71.9331C91.0015 73.4847 85.0288 74.3308 79.1721 74.4928C72.3141 74.6827 62.2806 74.3093 57.0705 69.3036C55.8142 68.0949 55.3904 66.0182 53.3597 65.9228L53.3613 65.9267Z" fill="white"/>
<path d="M46.1396 42.9646C44.8088 43.0145 43.632 43.7816 42.2061 43.9163C41.2055 44.0319 40.2265 43.8819 39.3737 43.5084C38.5292 43.3165 36.2612 41.0279 35.7133 41.8803C35.5015 43.0308 37.0367 44.4609 38.2285 45.0366C40.3059 46.1488 42.8501 45.791 44.9015 44.7889C45.5653 44.5109 47.3222 43.1222 46.1766 42.9613L46.142 42.9592L46.1396 42.9646Z" fill="white"/>
</g>
<defs>
<clipPath id="clip0_27_159">
<rect width="107.681" height="91.0541" fill="white" transform="matrix(-0.917277 -0.398251 -0.398251 0.917277 135.036 42.8843)"/>
</clipPath>
</defs>
</svg>
