<svg width="365" height="295" viewBox="0 0 365 295" fill="none" xmlns="http://www.w3.org/2000/svg">
<path d="M227 90.7695C275.82 113.279 364.26 76.8295 283 139.769C302.88 147.359 323.78 152.849 344.81 156.469C347.71 156.969 364.07 158.039 364.04 160.329C352.37 196.389 244.27 222.549 208 226.779L226.07 269.749L247 266.789C242.89 271.739 234.87 271.779 229 272.789L236.99 289.779C217.72 280.179 213.22 246.609 204.86 227.909C191.88 227.309 178.72 228.999 166 225.779C168.64 241.619 173.74 256.969 180.14 271.629C182.26 272.969 198.97 267.399 201.99 273.279C196.09 276.159 189.38 275.869 183 275.779C181.89 276.769 190.46 289.549 190.94 292.339C192.26 299.899 183.18 287.659 182.19 286.079C171.21 268.629 165.27 245.849 161.55 225.719C87 211.079 30.63 140.519 30 64.7895C18.82 63.2395 5.27 56.3195 0 45.7995C10.52 42.1995 23.89 41.7795 34.99 43.7895C54.95 -27.9105 131 1.20946 168.47 40.7695C181.4 29.8895 298.31 -2.60054 280.44 36.7195C270.5 57.1395 239.66 73.4295 227 90.7695ZM206.69 107.459C204.49 109.869 200.49 108.129 202.49 104.789C203.95 101.659 218.51 91.9395 217.52 89.7795C-38.67 -174.631 -16.84 275.389 235.19 218.469C267.6 209.219 337.8 192.749 356.99 164.269C357.9 162.119 355.44 162.989 354.48 162.819C327.12 159.959 301.34 151.689 275.45 142.879L247 160.389C244.76 161.589 240.84 156.559 242.04 154.829C259.62 145.799 281.39 135.559 296.47 122.749C334.65 89.6895 277.87 118.029 222.56 93.7695C217.13 95.5595 210.04 103.239 206.69 107.459ZM174.06 43.8795C184 54 204.06 72.5995 210.52 78.7595C214.27 81.6895 218.24 84.6295 222.51 86.7995C225.56 86.8095 263.24 50.7295 267.51 45.7995C309.12 2.26946 187.1 31.6695 174.06 43.8795ZM34 46.7995L10.01 49.2895C15.76 54.4095 23.12 59.3495 31 59.7995L34 46.7995Z" fill="#4E6F2E"/>
<path d="M127.85 126.939C134.56 170.489 184.45 195.419 225.53 193.829C229.6 193.409 235.41 190.539 234.99 196.769C191.47 207.189 125.8 173.389 123.96 126.219L127.85 126.939Z" fill="#4E6F2E"/>
<path d="M98.3301 54.9794C99.2001 57.9094 92.3601 61.4794 89.8901 62.1194C84.0901 63.9894 77.9701 62.9094 72.8701 58.9894C70.1001 56.9294 66.4901 53.0494 67.4801 49.4894C69.0001 47.3394 72.6401 51.7694 74.1001 52.8194C79.5901 57.5794 85.6101 56.6494 92.7201 55.0294C94.3501 54.7394 97.0701 53.8694 98.2701 54.9194L98.3201 54.9894L98.3301 54.9794Z" fill="#4E6F2E"/>
</svg>
