<svg width="366" height="319" viewBox="0 0 366 319" fill="none" xmlns="http://www.w3.org/2000/svg">
<g clip-path="url(#clip0_26_735)">
<path d="M216.97 79.0299C313.64 -3.52012 316.46 54.9199 255.96 132.02C291.65 131.53 326.59 124.34 360.59 114.06C383.64 127.37 317.74 176.94 306.94 187.51C281.57 210.94 257.79 238.46 225.95 253.04C234.07 265 241.71 279.32 253.27 287.89C256.01 286.61 268.41 277.44 269.95 281.53C270.39 283.74 260.81 291.12 257.96 291.03L270.48 301C271.79 301.9 270.01 303.97 269.46 303.99C268.3 304.03 251.92 293.19 249.93 291.54C239.65 283.05 229.62 266.96 221.87 256.06C210.03 260.6 197.76 265.97 184.95 268.01C187.33 274.84 202.77 300.69 209.41 300.88C213.17 300.99 222.9 294.97 224.94 300.52C225.52 302.09 222.18 303.3 221.13 303.68C198.06 307.29 221.93 308.14 220.94 318C206.06 316.86 188.56 281.23 179.94 269.45C122.51 280.02 52.6201 253.47 29.8901 197.04C25.7101 199.67 1.0201 195.88 0.0100991 192.38C-0.909901 186.75 20.9801 178.24 25.8501 176.91C20.4501 129.11 72.4301 104.77 113.49 107.97C117.41 108.12 131.73 110.9 133.96 109.52C153.28 71.6799 175.78 19.3899 215.7 0.269885C245.36 -4.92011 223.99 65.9699 216.98 79.0299H216.97ZM212.32 89.3799C200.62 105.47 192.37 124.28 185.01 142.63C183.41 146.62 177.71 150.96 173.62 147.4C169.82 144.09 171.65 136.68 173.24 132.8C180.44 115.24 198.31 101.32 207.77 86.3299C221.89 68.5699 245.93 -28.3501 197.43 17.9899C165.18 48.1099 146.19 98.6699 127.99 136.57C119.27 136.81 131.21 119.25 131.96 115.03C-92.4299 98.3099 94.4801 380.19 270.97 215.53C291.54 196.58 312.59 177.67 332.97 158.54C344.61 147.61 356.59 135.41 361.96 120.04C325.8 129.26 289.39 138.35 251.65 137.22C229.51 159.33 204.16 189.75 172.97 197.03C173.02 189.52 184.5 187.66 190.64 184.21C258.41 152.57 367.12 -41.7601 212.32 89.3899V89.3799ZM195.95 108.03C191.15 114.99 170.99 136.07 177.46 144.01L195.95 108.03ZM10.9701 191.02C15.2201 191.13 24.4201 194.61 28.0001 192.56L25.9501 181.03C24.8801 182.75 8.6801 188.5 10.9601 191.02H10.9701Z" fill="#4E6F2E"/>
<path d="M81.7301 164.16C82.7701 165.81 80.0701 168.46 78.8101 169.78C73.4601 175.01 63.8901 177.82 58.1601 174.99C56.2201 174.22 52.2801 170.4 55.6501 169.25C57.9501 168.81 60.0601 169.47 62.5001 169.67C67.2701 170.48 72.1701 168.2 76.2501 165.76C77.9201 164.94 80.2701 163.43 81.6701 164.12L81.7201 164.16H81.7301Z" fill="#4E6F2E"/>
</g>
<defs>
<clipPath id="clip0_26_735">
<rect width="365.45" height="318.03" fill="white"/>
</clipPath>
</defs>
</svg>
