<svg width="281" height="307" viewBox="0 0 281 307" fill="none" xmlns="http://www.w3.org/2000/svg">
<g clip-path="url(#clip0_26_720)">
<path d="M250.81 138.72C257.71 140.77 266.17 142.47 272.71 145.31C274.3 146 282.04 149.57 279.71 151.81C271.93 151.52 265.65 158.4 257.97 159.57C253.85 160.2 249.72 159.21 245.67 160.27C225.43 222.01 157.22 251.59 95.7101 241.81L103.85 281.67C107.49 283.99 119.79 277.98 123.7 282.33C124.58 286.46 109.44 287.41 106.71 286.82C103.91 289.56 120.08 304.7 111.22 306.81C96.72 288.54 94.75 263.01 90.2701 240.75C77.22 237.18 64.14 233.32 52.18 226.83C50.15 226.56 50.89 226.91 50.7 228.29C49.89 234.45 53.6801 268.86 56.7701 273.24C58.5101 275.7 74.7 277.9 78.69 278.82C78.09 287.99 61.2701 277.52 58.7 279.82C59.08 284.6 63.14 289.91 63.68 294.35C63.87 295.95 63.8 295.99 62.19 295.83C59.2101 295.32 57.31 290.47 56.22 287.79C48.28 268.27 47.05 244.83 46.53 223.97C28.81 214.66 11.77 201.49 -1.81996 186.83C-11.24 176.66 -18.65 164.28 -28.78 154.79C-45.21 139.38 -71.86 125.63 -80.48 103.49C-82.79 97.55 -85.8 85.84 -77.84 83.74C-40.64 96.17 -1.92996 105.56 37.69 103.8C38.62 102.95 25.87 84.83 24.52 82.48C14.92 65.72 -0.859962 32.53 1.78004 13.4C4.47004 -5.97003 28.42 -0.210026 40.74 5.28997C72.93 19.64 98.86 50.8 120.37 77.7C172.95 65.97 260.97 60.46 250.82 138.72H250.81ZM124.72 99.81C124.3 96.77 119.3 84.65 117.07 84.09C115.74 83.76 113.61 85.59 112.15 82.8C115.41 78.29 110.89 73.65 108.13 69.88C91.4901 47.18 58.64 14.77 31.26 6.74997C8.42004 0.0599742 4.45004 9.02997 8.03004 29.98C13.21 60.29 34.43 91.93 54.2 114.81C58.45 119.73 71.34 131.1 73.76 135.24C74.69 136.83 74.96 137.94 74.7 139.79L70.79 138.21C60.02 129.1 50.76 118.23 41.76 107.33C16.71 110.49 -11.53 107 -36.12 101.11C-41.64 99.79 -75.4 88.24 -77.24 89.84C-79.17 105.83 -62.42 121.44 -51.31 131.3C-42.64 139 -30.55 145.77 -22.75 153.74C-14.86 161.8 -7.45996 173.6 0.680038 182.31C31.72 215.56 72.58 239.4 119.37 239.41C173.61 239.42 230.31 207.06 243.24 151.83C263.64 65.9 182.35 69.76 122.71 81.8C124.09 87.77 129.34 91.85 126.82 98.4C126.3 99.76 127.16 100.12 124.72 99.8V99.81ZM270.71 148.82L248.71 143.8L246.71 154.8C248.32 156.34 268.6 152.83 270.71 148.82Z" fill="#4E6F2E"/>
<path d="M138.71 180.82C142.56 185.09 120.53 192.06 117.95 192.55C83.78 199.15 28.39 172.33 1.79996 151.22C-0.0600419 149.74 -6.71005 144.57 -6.29005 142.33L-3.28004 141.29C12.12 153.67 29.46 164.3 47.36 172.66C68.32 182.45 99.86 194.76 122.7 186.28C128.21 184.23 132.31 178.38 138.72 180.81L138.71 180.82Z" fill="#4E6F2E"/>
<path d="M191.89 119.54C195.94 121.48 198.55 125.43 202.78 127.76C205.72 129.46 208.95 130.31 212.09 130.3C214.96 130.84 225.05 126.81 225.6 130.18C224.71 134.02 218.04 136.38 213.58 136.56C205.66 137.21 198.27 132.69 193.27 126.84C191.59 125.09 188.02 118.44 191.78 119.48L191.89 119.52V119.54Z" fill="#4E6F2E"/>
</g>
<defs>
<clipPath id="clip0_26_720">
<rect width="363.15" height="306.81" fill="white" transform="translate(-83)"/>
</clipPath>
</defs>
</svg>
