<svg width="127" height="44" viewBox="0 0 127 44" fill="none" xmlns="http://www.w3.org/2000/svg">
<g clip-path="url(#clip0_27_44)">
<path d="M76.562 36.4648V24.9244C76.562 23.4698 76.0442 22.49 75.0034 21.9799L74.7018 21.8638L74.4504 21.8031C73.9124 21.5658 73.646 21.0961 73.646 20.389C73.5806 19.6819 73.832 19.2324 74.4001 19.0355L84.9583 14.5001L85.5114 14.4395C86.0141 14.4395 86.2303 14.7324 86.165 15.3234V37.3436C86.165 38.4799 86.3158 39.288 86.6175 39.7577C86.9191 40.2274 87.5224 40.6011 88.4274 40.8739L88.6788 40.9345L88.9302 41.0506C89.1313 41.1668 89.3173 41.3638 89.4832 41.6415C89.6492 41.9143 89.7346 42.192 89.7346 42.4648C89.7346 43.1718 89.4682 43.6415 88.9302 43.8789L88.2263 43.9951H74.6515L73.9476 43.8789C73.4097 43.6415 73.1432 43.1718 73.1432 42.4648C73.1432 42.1112 73.2287 41.8183 73.3946 41.5809C73.5605 41.3436 73.7465 41.1668 73.9476 41.0506L74.199 40.9345L74.5007 40.8739C75.3403 40.6011 75.8933 40.187 76.1598 39.6365C76.4263 39.0456 76.562 37.99 76.562 36.4597V36.4648ZM74.6515 8.38396C74.7873 7.56072 75.2046 6.71729 75.9084 5.85365C76.6123 4.99002 77.4519 4.28295 78.4223 3.73244C79.4278 3.18194 80.3479 2.8284 81.1875 2.67184C82.0573 2.47487 82.7964 2.37891 83.3997 2.37891C85.3103 2.57588 86.2655 3.55567 86.2655 5.32335C86.2655 5.47992 86.2303 5.75264 86.165 6.14658C85.8985 7.09103 85.4108 7.99002 84.7069 8.85365C84.003 9.67689 83.264 10.3082 82.4947 10.7375C81.7255 11.1668 81.0719 11.485 80.5339 11.6819C80.0312 11.8789 79.5133 12.0153 78.9753 12.0961C78.4726 12.1769 78.1055 12.2122 77.8692 12.2122C75.657 12.2122 74.5509 11.2122 74.5509 9.20719C74.5509 9.05062 74.5861 8.7779 74.6515 8.38396Z" fill="white"/>
<path d="M43.1779 36.404V11.3838C43.1779 10.4798 43.0623 9.81309 42.826 9.3838C42.6249 8.95451 42.2227 8.61612 41.6193 8.3838L41.3177 8.26764L41.0663 8.15148C40.5283 7.99491 40.2619 7.54542 40.2619 6.79794C40.2619 6.05047 40.5133 5.58077 41.016 5.3838L51.5742 0.904003L52.1775 0.787842C52.6451 0.86865 52.8462 1.18178 52.7809 1.73229V20.3383L52.8814 20.6919L53.0825 20.5151L54.7417 18.3383C55.4456 17.3939 56.1344 16.7272 56.803 16.3383C57.4717 15.9091 57.9242 15.6313 58.1605 15.5151C58.427 15.3585 58.8644 15.202 59.4677 15.0454C60.1062 14.8889 60.8101 14.808 61.5794 14.808C65.3652 14.808 67.7785 17.4192 68.8193 22.6363L71.4839 36.4141C71.8208 37.9848 72.1526 39.0656 72.4895 39.6515C72.8565 40.202 73.48 40.6111 74.3498 40.8889L74.6514 40.9495L74.9028 41.0656C75.1391 41.2222 75.3201 41.4192 75.4558 41.6565C75.5916 41.8535 75.657 42.1262 75.657 42.4798C75.657 43.1868 75.4056 43.6363 74.9028 43.8333L74.1989 44.0101H60.8252C60.5235 44.0101 60.2872 43.9495 60.1213 43.8333C59.5834 43.6363 59.3169 43.1868 59.3169 42.4798C59.3169 42.1262 59.4024 41.8333 59.5683 41.5959C59.7342 41.3585 59.9202 41.1818 60.1213 41.0656L60.6241 40.8282C61.5643 40.5151 62.0319 39.8686 62.0319 38.8838C61.9967 38.6464 61.9816 38.4697 61.9816 38.3535L61.9313 38L61.6296 36.409L60.0208 26.8131C59.885 26.0303 59.6035 25.1464 59.1661 24.1616C58.7638 23.1414 57.9443 22.6313 56.7025 22.6313C55.9986 22.6313 55.159 23.0252 54.1886 23.808C53.2484 24.5555 52.7809 25.9495 52.7809 27.9899V36.409L52.8311 37.4697V38.3535C52.9317 39.6111 53.5702 40.4343 54.7417 40.8282L55.0433 40.9444L55.2947 41.0606L55.8478 41.5909C55.9835 41.8636 56.0489 42.1616 56.0489 42.4747C56.0489 43.1414 55.883 43.5555 55.5461 43.7121C55.2444 43.8687 54.9277 43.9495 54.5908 43.9495L41.4685 44.0101C41.202 44.0101 40.8803 43.9293 40.5133 43.7727C40.1462 43.5757 39.9602 43.1464 39.9602 42.4798C39.9602 42.1262 40.0457 41.8333 40.2116 41.5959C40.3775 41.3585 40.5635 41.1818 40.7646 41.0656L41.3177 40.8282C42.5243 40.3989 43.1277 39.5707 43.1277 38.3535L43.1779 37.5858V36.409V36.404Z" fill="white"/>
<path d="M115.135 12.2071C115.371 12.2071 115.738 12.1667 116.241 12.091C116.779 12.0101 117.297 11.8738 117.799 11.6768C118.337 11.4798 118.991 11.1667 119.76 10.7324C120.529 10.3031 121.269 9.67176 121.972 8.84853C122.676 7.98489 123.164 7.08085 123.43 6.14146C123.496 5.74752 123.531 5.47479 123.531 5.31822C123.531 3.55055 122.576 2.57075 120.665 2.37378C120.062 2.37378 119.323 2.46974 118.453 2.66671C117.613 2.82327 116.693 3.17681 115.688 3.72731C114.717 4.27782 113.878 4.98489 113.174 5.84853C112.47 6.71216 112.053 7.5556 111.917 8.37883C111.852 8.77277 111.816 9.0455 111.816 9.20206C111.816 11.2021 112.923 12.2071 115.135 12.2071Z" fill="white"/>
<path d="M127 42.4697C127 43.1768 126.734 43.6465 126.196 43.8839L125.492 44H111.917L111.213 43.8839C110.675 43.6465 110.409 43.1768 110.409 42.4697C110.409 42.1162 110.494 41.8233 110.66 41.5859C110.826 41.3485 111.012 41.1717 111.213 41.0556L111.464 40.9394L111.766 40.8788C112.606 40.6061 113.159 40.1919 113.425 39.6414C113.692 39.0505 113.827 37.995 113.827 36.4647V21.5202C113.827 20.9344 113.486 20.7778 113.073 20.6364C112.465 20.4293 104.687 20.6364 104.687 20.6364C104.25 20.6364 104.033 20.9293 104.033 21.5202V34C104.033 34 104.033 34 104.028 34.0051V37.3435C104.028 38.4798 104.179 39.2879 104.481 39.7576C104.783 40.2273 105.381 40.601 106.281 40.8738L106.532 40.9344L106.784 41.0505C106.985 41.1667 107.166 41.3637 107.332 41.6414C107.498 41.9142 107.583 42.1919 107.583 42.4647C107.583 43.1717 107.317 43.6414 106.784 43.8788L106.085 43.995H92.5753L91.8765 43.8788C91.3435 43.6414 91.0771 43.1717 91.0771 42.4647C91.0771 42.1111 91.1625 41.8182 91.3284 41.5808C91.4944 41.3435 91.6804 41.1667 91.8765 41.0505L92.1279 40.9344L92.4295 40.8738C93.2641 40.601 93.8121 40.1869 94.0786 39.6364C94.3451 39.0455 94.4808 37.9899 94.4808 36.4596V34.0455C94.4808 34.0455 94.4557 34.0303 94.4406 34.0202L94.4808 32.6364V30.2526C94.4808 30.2526 94.4858 30.2526 94.4909 30.2526V20.5101C94.4909 19.9192 94.2546 19.6263 93.787 19.6263H91.5245C90.7201 19.6263 90.3179 19.1768 90.3179 18.2728C90.3179 17.9192 90.3681 17.6263 90.4687 17.3889C90.5341 17.1162 90.6698 16.8586 90.8709 16.6212C91.072 16.3839 91.7407 15.8384 92.882 14.9748C94.0535 14.1111 95.3305 12.9546 96.7031 11.5C98.0756 10.0101 99.6041 8.10609 101.278 5.78791L102.133 4.7273C102.334 4.61114 102.55 4.55054 102.787 4.55054C103.289 4.55054 103.641 4.78791 103.842 5.25761C103.978 5.45458 104.044 5.74751 104.044 6.14145V17.1313C104.044 17.1313 108.106 17.5657 113.692 17.0101C116.009 16.7778 118.282 16.197 120.424 15.2778L122.234 14.5L122.787 14.4394C123.29 14.4394 123.506 14.7324 123.44 15.3233V37.3435C123.44 38.4798 123.591 39.2879 123.893 39.7576C124.195 40.2273 124.798 40.601 125.703 40.8738L125.954 40.9344L126.206 41.0505C126.407 41.1667 126.593 41.3637 126.759 41.6414C126.925 41.9192 127.01 42.1919 127.01 42.4647L127 42.4697Z" fill="white"/>
<path d="M38.829 32.1314C37.9592 32.1314 37.6173 32.596 36.6068 33.9748C34.0627 37.5152 29.8043 39.5455 24.9274 39.5455C15.6814 39.5455 8.97447 31.99 8.97447 21.5758C8.97447 11.1617 15.0479 4.06068 23.4291 4.06068C27.1446 4.06068 30.8048 5.51018 33.4745 8.04048C34.4046 8.92432 35.2644 9.95967 36.1643 11.2981C36.6369 12.0253 37.2453 12.7728 38.1704 12.7728C39.1608 12.7728 39.9401 12.0152 39.9401 11.0556C39.9401 10.6718 39.8295 10.2172 39.6485 9.81321L36.4258 1.61119L36.3504 1.46977C36.1342 1.14654 36.0286 0.924319 35.9632 0.793006L35.8576 0.606137C35.5861 0.217248 35.0683 0.00512695 34.4046 0.00512695C33.4846 0.00512695 32.841 0.500077 32.4991 1.46977C32.3651 1.85024 32.1639 2.04048 31.8958 2.04048C31.8958 2.04048 31.6243 2.03038 30.6891 1.73745C27.2351 0.63644 24.5956 0.171794 21.8806 0.171794C9.81409 0.171794 0 10.2021 0 22.5354C0 34.8688 9.62807 44.0001 22.8912 44.0001C29.8043 44.0001 35.737 41.4597 39.181 37.0354C40.2418 35.6718 40.7144 34.7425 40.7144 34.0253C40.7144 33.0556 39.7994 32.1364 38.829 32.1364V32.1314Z" fill="white"/>
</g>
<defs>
<clipPath id="clip0_27_44">
<rect width="127" height="44" fill="white"/>
</clipPath>
</defs>
</svg>
