<svg width="113" height="91" viewBox="0 0 113 91" fill="none" xmlns="http://www.w3.org/2000/svg">
<path d="M42.3042 28.0205C27.2335 34.9694 -0.0679779 23.7173 25.017 43.1469C18.88 45.4899 12.4282 47.1847 5.93624 48.3022C5.04102 48.4565 -0.00932312 48.7868 -6.10352e-05 49.4937C3.60247 60.6255 36.973 68.7011 48.1695 70.0069L42.5913 83.2717L36.1302 82.358C37.399 83.886 39.8747 83.8984 41.6868 84.2102L39.2203 89.455C45.1689 86.4914 46.5581 76.1284 49.1388 70.3557C53.1458 70.1705 57.2083 70.6922 61.1349 69.6982C60.32 74.588 58.7456 79.3265 56.7699 83.8521C56.1155 84.2657 50.9571 82.5463 50.0248 84.3614C51.8461 85.2505 53.9175 85.1609 55.887 85.1332C56.2297 85.4388 53.5841 89.384 53.4359 90.2452C53.0285 92.579 55.8315 88.8005 56.1371 88.3128C59.5266 82.926 61.3603 75.8938 62.5086 69.6796C85.5222 65.1603 102.924 43.3784 103.118 20.0005C106.569 19.522 110.752 17.3858 112.379 14.1383C109.132 13.027 105.004 12.8973 101.578 13.5178C95.4161 -8.61599 71.9394 0.373361 60.3724 12.5855C56.3809 9.22688 20.2908 -0.802786 25.8073 11.3353C28.8758 17.639 38.3961 22.6677 42.3042 28.0205ZM48.5739 33.1728C49.2531 33.9167 50.4879 33.3796 49.8704 32.3485C49.4197 31.3823 44.9251 28.3817 45.2307 27.7149C124.317 -53.9085 117.578 85.0128 39.776 67.4416C29.771 64.5861 8.10023 59.5018 2.17628 50.71C1.89536 50.0463 2.65475 50.3149 2.95111 50.2624C11.3971 49.3795 19.3554 46.8266 27.3477 44.1069L36.1302 49.5123C36.8217 49.8827 38.0318 48.3299 37.6614 47.7959C32.2344 45.0083 25.514 41.8472 20.8588 37.8928C9.07264 27.6872 26.6006 36.4357 43.6748 28.9466C45.3511 29.4992 47.5398 31.87 48.5739 33.1728ZM58.6468 13.5456C55.5783 16.6698 49.3858 22.4115 47.3916 24.3131C46.234 25.2176 45.0084 26.1251 43.6903 26.795C42.7487 26.7981 31.1169 15.6602 29.7988 14.1383C16.9538 0.700584 54.6213 9.77637 58.6468 13.5456ZM101.883 14.447L109.289 15.2157C107.514 16.7962 105.242 18.3212 102.809 18.4601L101.883 14.447Z" fill="white"/>
<path d="M72.9119 39.1861C70.8406 52.63 55.4395 60.3259 42.7581 59.8351C41.5017 59.7054 39.7082 58.8195 39.8378 60.7427C53.2724 63.9593 73.5448 53.5253 74.1128 38.9639L72.9119 39.1861Z" fill="white"/>
<path d="M91.578 17.0012C91.7358 16.071 89.5071 15.2309 88.7264 15.1265C86.8795 14.7687 85.044 15.3269 83.6266 16.7176C82.8542 17.4518 81.892 18.7749 82.3275 19.8291C82.8732 20.4315 83.8242 18.9388 84.2327 18.5628C85.7384 16.9002 87.6178 16.9617 89.8569 17.1942C90.3672 17.2225 91.2331 17.3882 91.5618 17.0218L91.5745 16.9985L91.578 17.0012Z" fill="white"/>
</svg>
