<svg width="114" height="99" viewBox="0 0 114 99" fill="none" xmlns="http://www.w3.org/2000/svg">
<g clip-path="url(#clip0_27_202)">
<path d="M67.6823 24.6015C97.838 -1.09565 98.7177 17.0962 79.845 41.0968C90.9783 40.9443 101.878 38.7061 112.484 35.506C119.674 39.6493 99.1169 55.08 95.7479 58.3703C87.8339 65.6639 80.4159 74.2306 70.4836 78.7693C73.0166 82.4923 75.3998 86.95 79.0059 89.6178C79.8606 89.2193 83.7287 86.3648 84.2091 87.638C84.3464 88.3259 81.358 90.6232 80.4689 90.5952L84.3745 93.6988C84.7831 93.979 84.2278 94.6233 84.0563 94.6296C83.6944 94.642 78.5848 91.2676 77.964 90.754C74.7572 88.1111 71.6284 83.1024 69.2109 79.7094C65.5174 81.1226 61.6899 82.7943 57.6939 83.4293C58.4363 85.5554 63.2527 93.6023 65.324 93.6615C66.4969 93.6957 69.5322 91.8217 70.1685 93.5494C70.3494 94.0381 69.3076 94.4148 68.98 94.5331C61.7835 95.6568 69.2296 95.9214 68.9207 98.9908C64.279 98.6359 58.82 87.5446 56.131 83.8776C38.2161 87.1679 16.4143 78.9031 9.32382 61.337C8.01989 62.1556 0.31799 60.9759 0.00292669 59.8863C-0.284062 58.1338 6.5444 55.4847 8.06356 55.0707C6.37907 40.1909 22.5939 32.6141 35.4023 33.6102C36.6252 33.6569 41.0922 34.5223 41.7878 34.0927C47.8146 22.3135 54.8333 6.03604 67.2862 0.0841488C76.5384 -1.53145 69.8722 20.536 67.6854 24.6015H67.6823ZM66.2318 27.8233C62.582 32.832 60.0085 38.6874 57.7126 44.3996C57.2135 45.6416 55.4354 46.9926 54.1595 45.8844C52.9742 44.8541 53.545 42.5474 54.041 41.3396C56.287 35.8733 61.8615 31.5401 64.8124 26.8739C69.2171 21.3454 76.7162 -8.82501 61.5869 5.60023C51.5267 14.9763 45.6029 30.7152 39.9255 42.5132C37.2054 42.5879 40.93 37.1216 41.164 35.8079C-28.8332 30.6032 29.4723 118.35 84.5273 67.0927C90.944 61.1938 97.5104 55.3072 103.868 49.3522C107.499 45.9498 111.236 42.1521 112.911 37.3675C101.631 40.2376 90.2733 43.0673 78.5005 42.7155C71.5941 49.5982 63.6863 59.0676 53.9568 61.3338C53.9724 58.996 57.5535 58.417 59.4688 57.3431C80.6093 47.4938 114.521 -12.9994 66.2318 27.8264V27.8233ZM61.1253 33.6289C59.6279 35.7955 53.3391 42.3575 55.3574 44.8292L61.1253 33.6289ZM3.42183 59.463C4.7476 59.4972 7.61748 60.5805 8.73424 59.9424L8.09476 56.3532C7.76098 56.8886 2.70748 58.6785 3.41872 59.463H3.42183Z" fill="white"/>
<path d="M25.4952 51.1016C25.8196 51.6152 24.9774 52.4401 24.5843 52.851C22.9154 54.4791 19.9301 55.3538 18.1427 54.4728C17.5375 54.2331 16.3084 53.044 17.3597 52.686C18.0772 52.5491 18.7354 52.7545 19.4965 52.8168C20.9845 53.0689 22.513 52.3592 23.7857 51.5996C24.3067 51.3444 25.0398 50.8743 25.4765 51.0891L25.4921 51.1016H25.4952Z" fill="white"/>
</g>
<defs>
<clipPath id="clip0_27_202">
<rect width="114" height="99" fill="white"/>
</clipPath>
</defs>
</svg>
